<?xml version="1.0" encoding="UTF-8" standalone="no"?>
<!DOCTYPE svg PUBLIC "-//W3C//DTD SVG 1.1//EN" "http://www.w3.org/Graphics/SVG/1.1/DTD/svg11.dtd">
<svg width="100%" height="100%" viewBox="0 0 3508 2481" version="1.1" xmlns="http://www.w3.org/2000/svg" xmlns:xlink="http://www.w3.org/1999/xlink" xml:space="preserve" xmlns:serif="http://www.serif.com/" style="fill-rule:evenodd;clip-rule:evenodd;stroke-linecap:round;stroke-linejoin:round;stroke-miterlimit:1.5;">
    <g transform="matrix(1.682802,0,-0,1.682802,-976.567143,-249.208036)">
        <path d="M1923,376.25L1923,1403.75C1923,1489.987 1852.987,1560 1766.75,1560L1454.25,1560C1368.013,1560 1298,1489.987 1298,1403.75L1298,376.25C1298,290.013 1368.013,220 1454.25,220L1766.75,220C1852.987,220 1923,290.013 1923,376.25Z" style="fill:none;stroke:white;stroke-width:50px;"/>
    </g>
    <g transform="matrix(1,0,0,1,-25,201)">
        <path d="M2115,810.25L2115,1160.75C2115,1257.473 2036.473,1336 1939.75,1336L1570.25,1336C1473.527,1336 1395,1257.473 1395,1160.75L1395,810.25C1395,713.527 1473.527,635 1570.25,635L1939.75,635C2036.473,635 2115,713.527 2115,810.25Z" style="fill:none;stroke:white;stroke-width:50px;"/>
    </g>
    <g transform="matrix(1,0,0,1,-15,-217)">
        <path d="M2450,1114L2576,1226C2576,1226 2663.834,941.368 2812,915" style="fill:none;stroke:white;stroke-width:50px;"/>
    </g>
    <g transform="matrix(0.182565,0,0,0.182565,1410.627461,967.079665)">
        <g transform="matrix(1.150908,0,0,1.122868,-176.228027,-314.017897)">
            <path d="M700,1647C700,1647 340.176,1636.506 214,1871C214,1871 137.201,2011.258 490,1881C490,1881 576.331,1847.153 675,1804" style="fill:none;stroke:white;stroke-width:50px;"/>
        </g>
        <g transform="matrix(1.150908,0,0,1.122868,-176.228027,-314.017897)">
            <path d="M1934,1681C1934,1681 1734.402,1665.407 1793,1853" style="fill:none;stroke:white;stroke-width:50px;"/>
        </g>
        <g transform="matrix(1.150908,0,0,1.122868,-176.228027,-314.017897)">
            <path d="M1034,1876C1034,1876 928.794,1729.123 1108,1579" style="fill:none;stroke:white;stroke-width:50px;"/>
        </g>
        <g transform="matrix(1.150908,0,0,1.122868,-176.228027,-314.017897)">
            <path d="M2680.339,1506.833C2680.339,1506.833 2600.263,1504.406 2549,1519" style="fill:none;stroke:white;stroke-width:50px;"/>
        </g>
        <g transform="matrix(1.150908,0,0,1.122868,109.197093,-314.017897)">
            <path d="M2681,1526C2681,1526 2657.01,1505.165 2610,1516" style="fill:none;stroke:white;stroke-width:50px;"/>
        </g>
        <g transform="matrix(1.150908,0,0,1.122868,-176.228027,-314.017897)">
            <path d="M3025,1696C3025,1696 2843.432,1661.143 2870,1736C2870,1736 2924.851,1810.03 3025,1696Z" style="fill:none;stroke:white;stroke-width:50px;"/>
        </g>
        <g transform="matrix(1.150908,0,0,1.122868,-176.228027,-314.017897)">
            <path d="M2147,1196C2147,1196 2493.391,1075.239 2803,1229C2803,1229 3192.928,671.349 2980,1396C2980,1396 3001.341,1479.799 2942,1600C2942,1600 2983.092,1600.782 3035,1703C3086.908,1805.218 3022.509,1899.658 2982,1906C2941.491,1912.342 2786.423,1910.887 2682,1877C2682,1877 2487.871,1923.588 2302,1899" style="fill:none;stroke:white;stroke-width:50px;"/>
        </g>
        <g transform="matrix(1.150908,0,0,1.122868,-176.228027,-314.017897)">
            <path d="M2282,1286C2282,1286 1389.553,670.16 2021,1558C2021,1558 1964.569,1618.194 2017,1688C2017,1688 2408.45,1706.339 2282,1897C2282,1897 2216.888,1991.659 2040,1916C2040,1916 1772.682,1937.828 1601,1873C1601,1873 1314.507,1930.08 1032,1874C1032,1874 527.392,1976.935 731,1628C731,1628 873.991,1315.331 1814.796,1214.277" style="fill:none;stroke:white;stroke-width:50px;"/>
        </g>
        <g transform="matrix(1.038459,0,0,1.013159,-94.804831,109.125002)">
            <path d="M1695.955,1658.169C1695.955,1658.169 1588.38,1357.049 1786,1468C1983.62,1578.951 1350.726,1559.53 1745,1254" style="fill:none;stroke:white;stroke-width:50px;"/>
        </g>
        <g transform="matrix(1.150908,0,0,1.122868,-202.189508,-314.017897)">
            <path d="M3066,1710C3066,1710 3297.494,1804.446 3042,1886" style="fill:none;stroke:white;stroke-width:50px;"/>
        </g>
        <g transform="matrix(1.150908,0,0,1.122868,-176.228027,-314.017897)">
            <path d="M2506,1693C2506,1693 2411.069,1798.365 2677,1876" style="fill:none;stroke:white;stroke-width:50px;"/>
        </g>
        <g transform="matrix(1.038459,0,0,1.013159,-94.804831,109.125002)">
            <path d="M2301,1114C2301,1114 2160.646,1115.622 2170,1040C2179.354,964.378 2267.758,916.315 2264,995C2260.242,1073.685 2072.405,1051.999 2048,967" style="fill:none;stroke:white;stroke-width:50px;"/>
        </g>
        <g transform="matrix(1.038459,0,0,1.013159,-523.688504,-16.506746)">
            <path d="M1614,519C1614,519 1856.708,376.178 2004,431C2004,431 1686.438,582.721 1675,703C1675,703 1879.408,580.459 2032,634" style="fill:none;stroke:white;stroke-width:50px;"/>
        </g>
        <g transform="matrix(0.737853,0,0,0.653517,557.566205,334.597869)">
            <path d="M1614,519C1614,519 1856.708,376.178 2004,431C2004,431 1686.438,582.721 1675,703C1675,703 1879.408,580.459 2032,634" style="fill:none;stroke:white;stroke-width:71.74px;"/>
        </g>
    </g>
</svg>
