<?xml version="1.0" encoding="UTF-8" standalone="no"?>
<!DOCTYPE svg PUBLIC "-//W3C//DTD SVG 1.1//EN" "http://www.w3.org/Graphics/SVG/1.1/DTD/svg11.dtd">
<svg width="100%" height="100%" viewBox="0 0 3508 2481" version="1.1" xmlns="http://www.w3.org/2000/svg" xmlns:xlink="http://www.w3.org/1999/xlink" xml:space="preserve" xmlns:serif="http://www.serif.com/" style="fill-rule:evenodd;clip-rule:evenodd;stroke-linecap:round;stroke-linejoin:round;stroke-miterlimit:1.5;">
    <g transform="matrix(-0.989989,0.141146,0.141146,0.989989,3275.892857,-232.352604)">
        <g transform="matrix(1.379772,-0.686259,0.686259,1.379772,-1281.928922,1212.76616)">
            <path d="M1923,376.25L1923,1403.75C1923,1489.987 1852.987,1560 1766.75,1560L1454.25,1560C1368.013,1560 1298,1489.987 1298,1403.75L1298,376.25C1298,290.013 1368.013,220 1454.25,220L1766.75,220C1852.987,220 1923,290.013 1923,376.25Z" style="fill:none;stroke:rgb(44,37,32);stroke-width:50px;"/>
        </g>
        <g transform="matrix(1.541013,0,0,1.541013,-913.886586,-416.588411)">
            <path d="M1723,428C1723,428 1928.342,252.152 2362,359" style="fill:none;stroke:rgb(44,37,32);stroke-width:50px;"/>
        </g>
        <g transform="matrix(1.541013,0,0,1.541013,-913.886586,-416.588411)">
            <path d="M1863,624C1863,624 2046.403,507.51 2283,575" style="fill:none;stroke:rgb(44,37,32);stroke-width:50px;"/>
        </g>
        <g transform="matrix(0.827949,-0.145831,0.145831,0.827949,-1026.310504,766.213041)">
            <path d="M3245,1052C3245,1052 2784.715,719.208 2563,1151C2563,1151 2446.884,1402.443 2802,1383C2802,1383 2957.261,1366.682 3164,1294C3370.739,1221.318 3351.747,1129.048 3245,1052Z" style="fill:none;stroke:rgb(44,37,32);stroke-width:50px;"/>
        </g>
        <g transform="matrix(0.840653,0.008334,-0.008334,0.840653,-930.18941,260.196851)">
            <path d="M3224,952C3224,952 3281.041,854.1 3280,965" style="fill:none;stroke:rgb(44,37,32);stroke-width:50px;"/>
        </g>
        <g transform="matrix(0.412174,-0.73272,0.73272,0.412174,-304.165155,3054.701029)">
            <path d="M3005,876C3005,876 3058.076,767.246 3080,886" style="fill:none;stroke:rgb(44,37,32);stroke-width:50px;"/>
        </g>
        <g transform="matrix(0.827949,-0.145831,0.145831,0.827949,-1026.310504,766.213041)">
            <path d="M3131,1085C3131,1085 3127.772,1123.431 3054,1111" style="fill:none;stroke:rgb(44,37,32);stroke-width:50px;"/>
        </g>
        <g transform="matrix(0.827949,-0.145831,0.145831,0.827949,-1026.310504,766.213041)">
            <path d="M2959,1170C2959,1170 2862.957,1096.24 2729,1181" style="fill:none;stroke:rgb(44,37,32);stroke-width:50px;"/>
        </g>
        <g transform="matrix(0.827949,-0.145831,0.145831,0.827949,-1026.310504,766.213041)">
            <path d="M2961,1244C2961,1244 2875.119,1209.743 2783,1292" style="fill:none;stroke:rgb(44,37,32);stroke-width:50px;"/>
        </g>
        <path d="M1338,1646C1338,1646 1623.28,1653.191 1962,1393" style="fill:none;stroke:rgb(44,37,32);stroke-width:50px;"/>
    </g>
</svg>
