<?xml version="1.0" encoding="UTF-8" standalone="no"?>
<!DOCTYPE svg PUBLIC "-//W3C//DTD SVG 1.1//EN" "http://www.w3.org/Graphics/SVG/1.1/DTD/svg11.dtd">
<svg width="100%" height="100%" viewBox="0 0 3508 2481" version="1.1" xmlns="http://www.w3.org/2000/svg" xmlns:xlink="http://www.w3.org/1999/xlink" xml:space="preserve" xmlns:serif="http://www.serif.com/" style="fill-rule:evenodd;clip-rule:evenodd;stroke-linecap:round;stroke-linejoin:round;stroke-miterlimit:1.5;">
    <g transform="matrix(1.024512,0.297485,-0.297485,1.024512,289.781438,-585.182935)">
        <g transform="matrix(1.379772,-0.686259,0.686259,1.379772,-1281.928922,1212.76616)">
            <path d="M1923,376.25L1923,1403.75C1923,1489.987 1852.987,1560 1766.75,1560L1454.25,1560C1368.013,1560 1298,1489.987 1298,1403.75L1298,376.25C1298,290.013 1368.013,220 1454.25,220L1766.75,220C1852.987,220 1923,290.013 1923,376.25Z" style="fill:none;stroke:white;stroke-width:50px;"/>
        </g>
        <g transform="matrix(1.541013,0,0,1.541013,-913.886586,-416.588411)">
            <path d="M1723,428C1723,428 1977.768,223.866 2362,359" style="fill:none;stroke:white;stroke-width:50px;"/>
        </g>
        <g transform="matrix(1.541013,0,0,1.541013,-913.886586,-416.588411)">
            <path d="M1863,624C1863,624 2046.403,507.51 2283,575" style="fill:none;stroke:white;stroke-width:50px;"/>
        </g>
    </g>
    <g transform="matrix(1.084138,0,0,1.084138,-1730.758621,-152.827586)">
        <circle cx="2962.5" cy="1287.5" r="362.5" style="fill:none;stroke:white;stroke-width:50px;"/>
    </g>
    <g transform="matrix(0.50803,-0.109122,0.089085,0.414744,59.689417,492.177912)">
        <path d="M1779.963,2699.407C1774.195,2693.429 1767.872,2686.227 1760.995,2677.803C1754.118,2669.379 1748.017,2660.139 1742.692,2650.085C1737.368,2640.03 1734.595,2629.839 1734.373,2619.513C1734.151,2609.186 1737.812,2599.675 1745.354,2590.979C1752.454,2582.283 1759.553,2577.799 1766.652,2577.527C1773.751,2577.255 1780.074,2579.429 1785.62,2584.049C1791.167,2588.669 1795.271,2593.968 1797.933,2599.946C1805.032,2615.708 1815.349,2628.616 1828.881,2638.671C1842.414,2648.726 1856.835,2654.161 1872.142,2654.976C1887.45,2655.791 1901.316,2650.628 1913.739,2639.486C1926.163,2628.344 1934.815,2609.73 1939.696,2583.641C1941.471,2574.402 1942.247,2563.26 1942.026,2550.216C1941.804,2537.172 1939.363,2524.671 1934.704,2512.714C1930.046,2500.757 1921.504,2492.333 1909.081,2487.442C1898.875,2483.094 1889.669,2475.213 1881.46,2463.799C1873.252,2452.386 1871.144,2439.07 1875.137,2423.852C1877.8,2414.069 1883.235,2405.645 1891.443,2398.579C1899.652,2391.514 1908.637,2385.399 1918.398,2380.236C1928.16,2375.073 1936.368,2370.589 1943.024,2366.784C1962.547,2355.914 1975.081,2344.637 1980.628,2332.951C1986.174,2321.266 1986.174,2311.619 1980.628,2304.01C1975.081,2296.401 1965.32,2292.324 1951.343,2291.781C1937.367,2291.237 1920.395,2296.672 1900.428,2308.086C1891.554,2312.978 1883.457,2313.521 1876.136,2309.717C1868.815,2305.912 1862.825,2300.205 1858.166,2292.596C1853.507,2284.987 1850.512,2278.193 1849.181,2272.215C1847.406,2259.714 1849.957,2249.116 1856.835,2240.42C1863.712,2231.724 1873.141,2224.658 1885.121,2219.223C1897.101,2213.788 1909.857,2210.256 1923.39,2208.625C1936.923,2206.995 1949.458,2207.538 1960.994,2210.256C1977.411,2214.06 1992.829,2220.31 2007.25,2229.007C2021.67,2237.703 2033.539,2249.388 2042.857,2264.062C2052.175,2278.737 2056.833,2297.216 2056.833,2319.5C2057.277,2339.066 2053.173,2356.322 2044.521,2371.268C2035.869,2386.214 2024.221,2399.258 2009.579,2410.4C1994.937,2421.542 1978.52,2431.733 1960.328,2440.972C1975.414,2452.929 1987.283,2469.778 1995.935,2491.518C2004.588,2513.258 2009.801,2536.493 2011.576,2561.222C2013.351,2585.951 2011.354,2609.73 2005.586,2632.557C1999.818,2655.384 1989.613,2674.406 1974.97,2689.624C1956.779,2708.647 1935.703,2721.691 1911.743,2728.756C1887.783,2735.822 1864.045,2736.773 1840.529,2731.61C1817.012,2726.447 1796.824,2715.712 1779.963,2699.407Z" style="fill:white;fill-rule:nonzero;"/>
        <path d="M2339.694,2706.745C2327.714,2718.702 2311.408,2727.669 2290.775,2733.648C2270.143,2739.626 2247.958,2741.393 2224.22,2738.947C2200.482,2736.501 2177.52,2728.756 2155.335,2715.712C2133.15,2702.668 2114.515,2683.102 2099.429,2657.014C2087.005,2635.274 2078.686,2610.409 2074.471,2582.419C2070.255,2554.428 2069.923,2525.623 2073.472,2496.002C2077.022,2466.381 2084.343,2438.119 2095.436,2411.215C2106.528,2384.312 2120.948,2361.349 2138.697,2342.327C2159.994,2320.043 2184.287,2302.787 2211.575,2290.558C2238.862,2278.329 2266.372,2270.584 2294.103,2267.323C2321.835,2264.062 2347.458,2264.606 2370.975,2268.954C2394.491,2273.302 2412.905,2281.183 2426.216,2292.596C2441.301,2305.097 2449.288,2319.364 2450.176,2335.397C2451.063,2351.43 2447.07,2362.436 2438.196,2368.415C2434.202,2371.132 2428.434,2371.132 2420.891,2368.415C2413.348,2365.697 2404.585,2362.436 2394.602,2358.632C2384.619,2354.827 2373.859,2352.381 2362.322,2351.294C2341.468,2349.12 2319.283,2350.751 2295.767,2356.186C2272.251,2361.621 2249.733,2370.725 2228.213,2383.497C2206.694,2396.269 2188.391,2412.438 2173.305,2432.004C2162.213,2446.679 2154.448,2464.071 2150.011,2484.181C2145.574,2504.29 2144.465,2524.128 2146.683,2543.694C2153.339,2536.085 2161.103,2528.34 2169.978,2520.459C2178.852,2512.579 2188.835,2505.649 2199.927,2499.67C2220.781,2488.257 2243.743,2483.365 2268.812,2484.996C2293.881,2486.626 2316.621,2498.583 2337.031,2520.867C2352.117,2537.172 2362.766,2556.602 2368.978,2579.158C2375.19,2601.713 2376.077,2624.268 2371.64,2646.824C2367.203,2669.379 2356.554,2689.353 2339.694,2706.745ZM2203.255,2648.046C2218.785,2655.655 2234.647,2659.324 2250.842,2659.052C2267.037,2658.781 2282.012,2650.764 2295.767,2635.002C2301.979,2627.393 2303.865,2617.339 2301.424,2604.838C2298.984,2592.337 2293.549,2583.913 2285.118,2579.565C2274.026,2573.587 2262.711,2569.782 2251.175,2568.152C2239.639,2566.521 2227.104,2568.831 2213.571,2575.081C2200.038,2581.332 2184.62,2593.696 2167.315,2612.175C2177.077,2629.024 2189.057,2640.981 2203.255,2648.046Z" style="fill:white;fill-rule:nonzero;"/>
        <path d="M2568.644,2729.572C2535.81,2729.572 2509.632,2719.653 2490.109,2699.815C2470.586,2679.977 2457.164,2653.346 2449.843,2619.92C2442.522,2586.495 2440.414,2549.401 2443.52,2508.638C2446.626,2466.789 2454.723,2427.928 2467.813,2392.057C2480.902,2356.186 2496.099,2326.565 2513.403,2303.195C2522.277,2290.694 2530.264,2283.221 2537.363,2280.775C2544.462,2278.329 2550.23,2279.28 2554.667,2283.628C2568.866,2262.975 2584.285,2248.029 2600.923,2238.79C2617.562,2229.55 2634.756,2224.93 2652.504,2224.93C2702.642,2224.93 2738.138,2244.768 2758.992,2284.444C2779.846,2324.119 2787.833,2377.111 2782.952,2443.418C2780.29,2476.572 2773.413,2509.997 2762.32,2543.694C2751.227,2577.391 2736.253,2608.371 2717.395,2636.633C2698.538,2664.895 2676.575,2687.45 2651.505,2704.299C2626.436,2721.147 2598.816,2729.572 2568.644,2729.572ZM2569.975,2632.557C2588.167,2632.557 2605.139,2626.442 2620.89,2614.213C2636.641,2601.985 2650.729,2586.087 2663.153,2566.521C2675.576,2546.955 2685.56,2525.487 2693.103,2502.116C2700.645,2478.746 2705.304,2456.19 2707.079,2434.45C2708.41,2417.602 2707.856,2400.21 2705.415,2382.274C2702.975,2364.338 2697.318,2349.256 2688.444,2337.027C2679.57,2324.799 2665.815,2318.684 2647.179,2318.684C2631.65,2318.684 2619.781,2321.945 2611.572,2328.467C2603.364,2334.989 2596.486,2345.316 2590.94,2359.447C2585.394,2373.578 2578.405,2392.329 2569.975,2415.699C2563.763,2433.635 2554.002,2440.429 2540.691,2436.081C2536.254,2438.255 2531.595,2449.396 2526.714,2469.506C2521.833,2489.616 2518.506,2511.899 2516.731,2536.357C2515.843,2551.575 2517.507,2566.521 2521.723,2581.196C2525.938,2595.87 2532.15,2608.099 2540.358,2617.882C2548.566,2627.665 2558.439,2632.557 2569.975,2632.557Z" style="fill:white;fill-rule:nonzero;"/>
        <path d="M2916.411,2120.728C2947.392,2120.728 2972.416,2132.006 2991.481,2154.564C3010.546,2177.121 3020.079,2210.692 3020.079,2255.276C3020.079,2294.818 3011.034,2327.526 2992.943,2353.401C2974.853,2379.276 2948.259,2392.213 2913.161,2392.213C2873.081,2392.213 2844.05,2374.433 2826.068,2338.871C2814.152,2315.518 2808.194,2288.714 2808.194,2258.461C2808.194,2228.473 2814.26,2201.271 2826.393,2176.856C2845.241,2139.437 2875.247,2120.728 2916.411,2120.728ZM2916.086,2166.904C2897.021,2166.904 2882.126,2174.932 2871.402,2190.987C2860.678,2207.043 2855.316,2230.198 2855.316,2260.451C2855.316,2284.07 2859.811,2304.239 2868.802,2320.958C2877.793,2337.677 2892.038,2346.037 2911.537,2346.037C2935.802,2346.037 2953.025,2333.431 2963.208,2308.22C2969.274,2293.093 2972.307,2275.312 2972.307,2254.878C2972.307,2225.686 2966.837,2203.726 2955.896,2188.997C2944.955,2174.268 2931.685,2166.904 2916.086,2166.904Z" style="fill:white;fill-rule:nonzero;"/>
    </g>
    <path d="M1413,941C1413,941 1404.459,1009.178 1440,1101" style="fill:none;stroke:white;stroke-width:50px;"/>
    <g transform="matrix(1,0,0,1,17,7)">
        <path d="M1499,1418C1499,1418 1500.396,1482.599 1530,1555" style="fill:none;stroke:white;stroke-width:50px;"/>
    </g>
</svg>
